<svg xmlns="http://www.w3.org/2000/svg" width="210mm" height="210mm" viewBox="0 0 210 210" id="image-download"><path fill="#8e8063" d="M 30.754333,54.3372 H 169.53939 c 7.07359,0 12.76822,5.694629 12.76822,12.768224 v 99.925246 c 0,7.07359 -5.69463,12.76822 -12.76822,12.76822 H 30.754333 c -7.073596,0 -12.768224,-5.69463 -12.768224,-12.76822 V 67.105424 c 0,-7.073595 5.694628,-12.768224 12.768224,-12.768224 z" paint-order="stroke fill markers"></path><path d="m 30.753908,52.749023 c -7.925604,0 -14.355468,6.429865 -14.355468,14.355468 v 99.925779 c 0,7.9256 6.429864,14.35547 14.355468,14.35547 H 169.53906 c 7.9256,0 14.35547,-6.42987 14.35547,-14.35547 V 67.104491 c 0,-7.925603 -6.42987,-14.355468 -14.35547,-14.355468 z m 0,3.175781 H 169.53906 c 6.22157,0 11.18164,4.958115 11.18164,11.179687 v 99.925779 c 0,6.22157 -4.96007,11.18164 -11.18164,11.18164 H 30.753908 c -6.221574,0 -11.179687,-4.96007 -11.179687,-11.18164 V 67.104491 c 0,-6.221574 4.958113,-11.179687 11.179687,-11.179687 z" color="#000" paint-order="stroke fill markers"></path><path fill="#fff" d="M 32.697329,65.569411 H 167.59639 V 168.56667 H 32.697329 Z" paint-order="stroke fill markers"></path><path fill="#ffa600" d="m 90.276243,93.676688 a 9.992527,9.992527 0 0 1 -9.992527,9.992522 9.992527,9.992527 0 0 1 -9.992527,-9.992522 9.992527,9.992527 0 0 1 9.992527,-9.992526 9.992527,9.992527 0 0 1 9.992527,9.992526 z" paint-order="stroke fill markers"></path><path fill="#bcd35f" d="m 135.19043,109.69469 c -20.05845,0.0854 -46.646706,42.74679 -55.982115,58.87186 H 167.5962 v -39.0586 c -9.97089,-10.80645 -21.56571,-19.85941 -32.40577,-19.81326 z"></path><path d="m 135.1836,108.10644 c -5.57583,0.0237 -11.26061,2.92615 -16.86719,7.30469 -5.60658,4.37854 -11.16146,10.29946 -16.36914,16.70312 -10.415372,12.80734 -19.42231,27.55353 -24.113284,35.65625 l -1.378906,2.38282 h 92.72852 v -41.26563 l -0.41993,-0.45703 C 158.6765,117.49818 146.91229,108.05651 135.1836,108.10644 Z m 0.0137,3.17578 c 9.81395,-0.0418 21.04983,8.41002 30.81054,18.88672 v 36.81055 H 82.052736 c 4.878196,-8.2942 12.895855,-21.22684 22.357424,-32.86133 5.1136,-6.28798 10.54945,-12.05669 15.86133,-16.20508 5.31187,-4.14839 10.47239,-6.6119 14.92578,-6.63086 z" color="#000"></path><path fill="#abc837" d="m 66.017906,111.60568 c -9.93335,-0.17696 -22.116806,4.50329 -33.320447,10.29653 v 46.66434 H 167.5962 v -17.00672 c -20.01388,0.83128 -45.07223,0.31427 -60.16273,-5.78104 -15.673884,-6.33094 -21.051481,-31.22915 -37.749122,-33.86357 -1.1814,-0.18639 -2.405789,-0.28708 -3.666442,-0.30954 z"></path><path fill="#94ad30" d="m 43.873004,116.71855 c -3.754746,1.52395 -7.517286,3.29203 -11.175545,5.18366 v 46.66434 h 75.769531 c 0,0 -35.94418,-7.55034 -48.775313,-19.4567 -8.807967,-8.17315 -15.818673,-32.3913 -15.818673,-32.3913 z"></path><path d="m 32.697267,64.016601 a 1.5535003,1.5535003 0 0 0 -1.552734,1.552734 V 168.56738 a 1.5535003,1.5535003 0 0 0 1.552734,1.55273 H 167.5957 a 1.5535003,1.5535003 0 0 0 1.55469,-1.55273 V 65.569335 a 1.5535003,1.5535003 0 0 0 -1.55469,-1.552734 z m 1.552735,3.105468 H 166.04297 V 167.01269 H 34.250002 Z" color="#000" paint-order="stroke fill markers"></path><circle cx="161.758" cy="60.458" r="30.255" fill="#fff" paint-order="stroke fill markers"></circle><path fill="#fc0" d="m 155.24492,39.350385 v 22.39425 l -7.82555,0.0406 14.50011,19.779969 14.17752,-19.928939 -7.82587,0.0406 v -22.3264 z" paint-order="stroke fill markers"></path><path d="m 155.24414,37.762695 a 1.5876587,1.5876587 0 0 0 -1.58594,1.58789 v 20.814454 l -6.24804,0.0332 a 1.5876587,1.5876587 0 0 0 -1.27149,2.52539 l 14.5,19.779297 a 1.5876587,1.5876587 0 0 0 2.57422,-0.01758 l 14.17774,-19.929682 a 1.5876587,1.5876587 0 0 0 -1.30274,-2.507813 l -6.22851,0.0332 V 39.350585 a 1.5876587,1.5876587 0 0 0 -1.58789,-1.58789 z m 1.58789,3.175781 h 9.85157 v 20.738281 a 1.5876587,1.5876587 0 0 0 1.5957,1.587891 l 4.72851,-0.02539 -11.10742,15.613281 -11.36133,-15.496094 4.71485,-0.02344 a 1.5876587,1.5876587 0 0 0 1.57812,-1.587891 z" color="#000" paint-order="stroke fill markers"></path><path d="M161.75781 28.614257c-17.56738.000002-31.84179 14.276366-31.84179 31.84375 0 17.567384 14.27441 31.841796 31.84179 31.841797 17.56739-.000001 31.84375-14.274413 31.84375-31.841797 0-17.567384-14.27636-31.843748-31.84375-31.84375zm0 3.175782c15.85149.000001 28.66797 12.81648 28.66797 28.667968 0 15.851489-12.81648 28.667968-28.66797 28.667969-15.85148-.000001-28.66796-12.81648-28.66796-28.667969 0-15.851488 12.81648-28.667967 28.66796-28.667968zM80.283205 82.096679c-6.376663 0-11.580078 5.203415-11.580078 11.580078.000002 6.376663 5.203417 11.580073 11.580078 11.580073 6.376661 0 11.580076-5.20341 11.580078-11.580073 0-6.376663-5.203415-11.580078-11.580078-11.580078zm0 3.175781c4.660767 0 8.40625 3.74353 8.40625 8.404297-.000001 4.660766-3.745484 8.404293-8.40625 8.404293-4.660766 0-8.404295-3.743526-8.404297-8.404293 0-4.660767 3.74353-8.404297 8.404297-8.404297z" color="#000" paint-order="stroke fill markers"></path><path d="m 66.046877,110.01855 c -10.454866,-0.18625 -22.767264,4.62398 -34.078125,10.47266 l -0.859375,0.44531 v 49.2168 H 169.1836 v -20.24805 l -1.65235,0.0684 c -19.93169,0.82787 -44.95037,0.2124 -59.5039,-5.66602 -7.22531,-2.91846 -12.387978,-10.40471 -17.804692,-17.78519 -5.416714,-7.38048 -11.207637,-14.74268 -20.291016,-16.17578 -1.261247,-0.19899 -2.557928,-0.30449 -3.884765,-0.32813 z m -0.05664,3.17383 c 1.194466,0.0213 2.345716,0.11722 3.447266,0.29102 7.614246,1.20131 12.859655,7.60606 18.224609,14.91601 5.364954,7.30995 10.729174,15.43905 19.177738,18.85156 15.21795,6.14679 39.35285,6.67354 59.16796,5.92774 v 13.80078 H 34.285158 v -44.07813 c 10.859348,-5.53065 22.532709,-9.87238 31.705079,-9.70898 z" color="#000"></path></svg>